<svg width="780" height="489" viewBox="0 0 780 489" fill="none" xmlns="http://www.w3.org/2000/svg">
<g clip-path="url(#clip0_18_215)" filter="url(#filter0_d_18_215)">
<path d="M734.45 477H87.0211C81.2636 477 75.742 474.743 71.6708 470.727C67.5997 466.71 65.3125 461.262 65.3125 455.581C300.005 428.669 530.288 428.669 756.159 455.581C756.159 461.262 753.872 466.71 749.801 470.727C745.729 474.743 740.208 477 734.45 477Z" fill="#CCCCCC"/>
<path d="M756.159 456.841L65.3125 455.581L145.379 322.657L145.762 322.027V29.0762C145.762 25.5205 146.472 21.9994 147.851 18.7143C149.23 15.4291 151.251 12.4441 153.799 9.92979C156.348 7.41547 159.373 5.42106 162.702 4.06045C166.032 2.69985 169.601 1.9997 173.205 1.99999H644.436C648.04 1.9997 651.608 2.69985 654.938 4.06045C658.268 5.42106 661.293 7.41547 663.841 9.92979C666.39 12.4441 668.411 15.4291 669.79 18.7143C671.169 21.9994 671.879 25.5205 671.878 29.0762V324.042L756.159 456.841Z" fill="#E6E6E6"/>
<path d="M172.579 20.8992C170.209 20.9018 167.937 21.8319 166.261 23.4853C164.585 25.1387 163.643 27.3805 163.64 29.7188V296.828C163.643 299.166 164.585 301.408 166.261 303.061C167.937 304.714 170.209 305.644 172.579 305.647H648.893C651.262 305.644 653.534 304.714 655.21 303.061C656.886 301.408 657.828 299.166 657.831 296.828V29.7188C657.829 27.3806 656.886 25.1388 655.21 23.4854C653.534 21.832 651.262 20.9019 648.893 20.8992H172.579Z" fill="white"/>
<path d="M175.709 340.926C174.977 340.927 174.26 341.135 173.643 341.524C173.027 341.914 172.536 342.47 172.229 343.126L147.558 396.043C147.289 396.619 147.172 397.253 147.216 397.885C147.26 398.517 147.465 399.129 147.812 399.662C148.159 400.196 148.636 400.635 149.199 400.94C149.763 401.244 150.395 401.403 151.038 401.403H669.856C670.509 401.403 671.151 401.238 671.722 400.925C672.292 400.611 672.772 400.158 673.115 399.61C673.458 399.062 673.654 398.437 673.683 397.793C673.712 397.149 673.574 396.509 673.282 395.933L646.465 343.015C646.149 342.386 645.66 341.857 645.055 341.488C644.45 341.118 643.751 340.924 643.04 340.926L175.709 340.926Z" fill="#CCCCCC"/>
<path d="M408.82 16.4894C411.994 16.4894 414.567 13.9509 414.567 10.8196C414.567 7.6883 411.994 5.14987 408.82 5.14987C405.647 5.14987 403.074 7.6883 403.074 10.8196C403.074 13.9509 405.647 16.4894 408.82 16.4894Z" fill="white"/>
<path d="M357.824 411.483C356.982 411.484 356.164 411.758 355.496 412.264C354.827 412.769 354.346 413.477 354.126 414.28L347.937 436.959C347.784 437.519 347.764 438.106 347.878 438.675C347.992 439.245 348.238 439.78 348.595 440.241C348.953 440.701 349.413 441.074 349.94 441.331C350.468 441.588 351.048 441.722 351.636 441.721H469.327C469.938 441.722 470.54 441.577 471.082 441.301C471.625 441.025 472.093 440.625 472.447 440.134C472.802 439.643 473.032 439.076 473.118 438.479C473.205 437.883 473.146 437.274 472.946 436.705L464.99 414.026C464.729 413.284 464.24 412.64 463.591 412.184C462.943 411.728 462.166 411.483 461.37 411.483H357.824Z" fill="#CCCCCC"/>
<path d="M671.878 317.616V322.657H145.379L145.775 322.026V317.616H671.878Z" fill="#CCCCCC"/>
<path d="M606.892 329.161C606.687 329.162 606.488 329.229 606.325 329.352C606.162 329.475 606.045 329.647 605.991 329.843L604.484 335.365C604.447 335.502 604.442 335.645 604.47 335.783C604.498 335.922 604.558 336.052 604.645 336.164C604.732 336.277 604.844 336.368 604.972 336.43C605.101 336.493 605.242 336.525 605.385 336.525H634.045C634.193 336.525 634.34 336.49 634.472 336.423C634.604 336.355 634.718 336.258 634.804 336.138C634.891 336.019 634.947 335.881 634.968 335.736C634.989 335.59 634.975 335.442 634.926 335.304L632.988 329.781C632.925 329.6 632.806 329.443 632.648 329.332C632.49 329.221 632.301 329.162 632.107 329.161H606.892Z" fill="#CCCCCC"/>
<path d="M565.046 329.161C564.84 329.162 564.641 329.229 564.478 329.352C564.316 329.475 564.198 329.647 564.145 329.843L562.638 335.365C562.601 335.502 562.596 335.645 562.623 335.783C562.651 335.922 562.711 336.052 562.798 336.164C562.885 336.277 562.997 336.368 563.126 336.43C563.254 336.493 563.395 336.525 563.539 336.525H592.198C592.347 336.525 592.493 336.49 592.626 336.423C592.758 336.355 592.872 336.258 592.958 336.138C593.044 336.019 593.1 335.881 593.121 335.736C593.142 335.59 593.128 335.442 593.079 335.304L591.142 329.781C591.078 329.6 590.959 329.443 590.801 329.332C590.643 329.221 590.454 329.162 590.26 329.161H565.046Z" fill="#CCCCCC"/>
<path d="M443.808 364.253H446.054L441.561 68.0194H439.315L439.405 73.9293H389.061L389.151 68.0194H386.905L382.412 364.253H384.658L384.95 345.046H443.516L443.808 364.253ZM440.57 150.758H387.896L388.445 114.56H440.021L440.57 150.758ZM440.604 152.974L441.153 189.172H387.314L387.862 152.974H440.604ZM441.186 191.388L441.735 227.587H386.731L387.28 191.388H441.186ZM441.769 229.803L442.318 266.001H386.148L386.697 229.803H441.769ZM442.351 268.217L442.9 304.415H385.566L386.115 268.217H442.351ZM439.439 76.1455L439.987 112.344H388.479L389.028 76.1455H439.439ZM384.983 342.829L385.532 306.631H442.934L443.483 342.829H384.983Z" fill="#3F3D56"/>
<path d="M403.106 170.052C423.334 170.052 439.732 153.872 439.732 133.914C439.732 113.956 423.334 97.7762 403.106 97.7762C382.878 97.7762 366.479 113.956 366.479 133.914C366.479 153.872 382.878 170.052 403.106 170.052Z" fill="#2F2E41"/>
<path d="M424.65 158.888L413.701 160.844L417.252 180.199L428.201 178.244L424.65 158.888Z" fill="#2F2E41"/>
<path d="M402.752 162.8L391.803 164.755L395.354 184.111L406.303 182.155L402.752 162.8Z" fill="#2F2E41"/>
<path d="M401.166 188.184C405.074 184.919 407.236 181.099 405.995 179.653C404.754 178.207 400.58 179.682 396.672 182.948C392.764 186.213 390.602 190.033 391.843 191.478C393.084 192.924 397.258 191.449 401.166 188.184Z" fill="#2F2E41"/>
<path d="M422.608 184.354C426.516 181.089 428.678 177.269 427.437 175.823C426.196 174.377 422.022 175.852 418.114 179.118C414.206 182.383 412.044 186.203 413.285 187.649C414.526 189.095 418.7 187.62 422.608 184.354Z" fill="#2F2E41"/>
<path d="M400.542 137.425C407.455 137.425 413.06 131.896 413.06 125.075C413.06 118.253 407.455 112.724 400.542 112.724C393.628 112.724 388.024 118.253 388.024 125.075C388.024 131.896 393.628 137.425 400.542 137.425Z" fill="white"/>
<path d="M395.397 124.764C397.701 124.764 399.57 122.921 399.57 120.647C399.57 118.374 397.701 116.53 395.397 116.53C393.092 116.53 391.224 118.374 391.224 120.647C391.224 122.921 393.092 124.764 395.397 124.764Z" fill="#3F3D56"/>
<path d="M431.999 94.5999C432.55 81.2211 420.863 69.8892 405.897 69.2894C390.93 68.6896 378.35 79.0489 377.799 92.4277C377.249 105.806 387.653 108.846 402.619 109.446C417.586 110.046 431.448 107.979 431.999 94.5999Z" fill="#00FFAB"/>
<path d="M387.137 131.367C387.846 128.314 380.429 124.031 370.571 121.801C360.712 119.572 352.146 120.24 351.436 123.293C350.727 126.347 358.144 130.63 368.002 132.859C377.86 135.089 386.427 134.421 387.137 131.367Z" fill="#2F2E41"/>
<path d="M459.033 143.164C459.742 140.111 452.326 135.828 442.467 133.598C432.609 131.369 424.042 132.037 423.332 135.09C422.623 138.144 430.04 142.427 439.898 144.656C449.757 146.886 458.324 146.218 459.033 143.164Z" fill="#2F2E41"/>
<path d="M413.165 148.156C413.363 149.22 413.345 150.312 413.115 151.37C412.884 152.427 412.444 153.43 411.821 154.32C411.197 155.21 410.402 155.969 409.481 156.556C408.559 157.143 407.53 157.544 406.451 157.738C405.372 157.932 404.265 157.914 403.193 157.685C402.122 157.457 401.106 157.022 400.205 156.406C399.303 155.79 398.534 155.005 397.94 154.095C397.346 153.186 396.94 152.169 396.745 151.105L396.742 151.089C395.921 146.614 399.427 145.031 403.963 144.221C408.498 143.411 412.344 143.681 413.165 148.156Z" fill="white"/>
<path d="M279.054 256.652C282.755 247.096 283.292 238.42 280.251 237.274C277.211 236.127 271.745 242.944 268.044 252.5C264.342 262.055 263.806 270.731 266.846 271.878C269.887 273.024 275.352 266.207 279.054 256.652Z" fill="#2F2E41"/>
<path d="M275.906 288.484C279.228 268.289 265.327 249.26 244.859 245.983C224.391 242.706 205.105 256.421 201.783 276.616C198.462 296.812 212.362 315.84 232.831 319.117C253.299 322.395 272.585 308.68 275.906 288.484Z" fill="#2F2E41"/>
<path d="M233.142 311.624H221.735V331.788H233.142V311.624Z" fill="#2F2E41"/>
<path d="M255.954 311.624H244.548V331.788H255.954V311.624Z" fill="#2F2E41"/>
<path d="M231.241 335.539C236.49 335.539 240.746 333.965 240.746 332.022C240.746 330.08 236.49 328.505 231.241 328.505C225.991 328.505 221.735 330.08 221.735 332.022C221.735 333.965 225.991 335.539 231.241 335.539Z" fill="#2F2E41"/>
<path d="M254.053 335.07C259.303 335.07 263.559 333.496 263.559 331.553C263.559 329.611 259.303 328.036 254.053 328.036C248.804 328.036 244.548 329.611 244.548 331.553C244.548 333.496 248.804 335.07 254.053 335.07Z" fill="#2F2E41"/>
<path d="M202.424 248.099C199.392 234.703 209.083 221.167 224.069 217.865C239.056 214.563 253.662 222.747 256.694 236.143C259.725 249.539 249.794 254.48 234.807 257.781C219.821 261.083 205.456 261.495 202.424 248.099Z" fill="#00FFAB"/>
<path d="M213.517 273.299C214.912 270.397 208.449 264.491 199.081 260.107C189.713 255.723 180.988 254.522 179.593 257.424C178.199 260.325 184.662 266.231 194.03 270.615C203.398 274.999 212.123 276.2 213.517 273.299Z" fill="#2F2E41"/>
<path d="M76.273 357.106C97.0092 357.106 113.819 340.52 113.819 320.06C113.819 299.601 97.0092 283.015 76.273 283.015C55.5369 283.015 38.7269 299.601 38.7269 320.06C38.7269 340.52 55.5369 357.106 76.273 357.106Z" fill="#2F2E41"/>
<path d="M70.5698 349.134H59.1634V369.298H70.5698V349.134Z" fill="#2F2E41"/>
<path d="M93.3827 349.134H81.9763V369.298H93.3827V349.134Z" fill="#2F2E41"/>
<path d="M68.6687 373.049C73.9184 373.049 78.1741 371.475 78.1741 369.532C78.1741 367.59 73.9184 366.015 68.6687 366.015C63.419 366.015 59.1633 367.59 59.1633 369.532C59.1633 371.475 63.419 373.049 68.6687 373.049Z" fill="#2F2E41"/>
<path d="M91.4816 372.58C96.7313 372.58 100.987 371.006 100.987 369.063C100.987 367.121 96.7313 365.546 91.4816 365.546C86.232 365.546 81.9763 367.121 81.9763 369.063C81.9763 371.006 86.232 372.58 91.4816 372.58Z" fill="#2F2E41"/>
<path d="M77.2236 323.343C84.3106 323.343 90.0558 317.674 90.0558 310.682C90.0558 303.689 84.3106 298.021 77.2236 298.021C70.1365 298.021 64.3914 303.689 64.3914 310.682C64.3914 317.674 70.1365 323.343 77.2236 323.343Z" fill="white"/>
<path d="M77.2236 314.902C79.5859 314.902 81.501 313.013 81.501 310.682C81.501 308.351 79.5859 306.461 77.2236 306.461C74.8612 306.461 72.9462 308.351 72.9462 310.682C72.9462 313.013 74.8612 314.902 77.2236 314.902Z" fill="#3F3D56"/>
<path d="M39.8519 285.609C36.8203 272.213 46.5114 258.677 61.4976 255.375C76.4838 252.073 91.0902 260.257 94.1219 273.653C97.1535 287.049 87.2216 291.99 72.2354 295.291C57.2492 298.593 42.8837 299.005 39.8519 285.609Z" fill="#E6E6E6"/>
<path d="M103.65 187.715C107.351 178.159 107.888 169.484 104.847 168.337C101.807 167.19 96.3414 174.007 92.6397 183.563C88.938 193.118 88.4019 201.794 91.4422 202.941C94.4826 204.087 99.9481 197.271 103.65 187.715Z" fill="#2F2E41"/>
<path d="M100.502 219.548C103.824 199.352 89.9234 180.324 69.455 177.046C48.9866 173.769 29.701 187.484 26.3794 207.679C23.0578 227.875 36.9581 246.903 57.4265 250.181C77.895 253.458 97.1806 239.743 100.502 219.548Z" fill="#2F2E41"/>
<path d="M57.7376 242.687H46.3312V262.851H57.7376V242.687Z" fill="#2F2E41"/>
<path d="M80.5504 242.687H69.144V262.851H80.5504V242.687Z" fill="#2F2E41"/>
<path d="M55.8366 266.602C61.0862 266.602 65.3419 265.028 65.3419 263.085C65.3419 261.143 61.0862 259.568 55.8366 259.568C50.5869 259.568 46.3312 261.143 46.3312 263.085C46.3312 265.028 50.5869 266.602 55.8366 266.602Z" fill="#2F2E41"/>
<path d="M78.6494 266.133C83.899 266.133 88.1547 264.559 88.1547 262.617C88.1547 260.674 83.899 259.1 78.6494 259.1C73.3997 259.1 69.144 260.674 69.144 262.617C69.144 264.559 73.3997 266.133 78.6494 266.133Z" fill="#2F2E41"/>
<path d="M64.3913 216.896C71.4784 216.896 77.2236 211.227 77.2236 204.235C77.2236 197.242 71.4784 191.574 64.3913 191.574C57.3043 191.574 51.5591 197.242 51.5591 204.235C51.5591 211.227 57.3043 216.896 64.3913 216.896Z" fill="white"/>
<path d="M64.3913 208.455C66.7537 208.455 68.6687 206.566 68.6687 204.235C68.6687 201.904 66.7537 200.015 64.3913 200.015C62.029 200.015 60.1139 201.904 60.1139 204.235C60.1139 206.566 62.029 208.455 64.3913 208.455Z" fill="#3F3D56"/>
<path d="M27.0197 179.162C23.9881 165.766 33.6791 152.23 48.6654 148.928C63.6516 145.627 78.258 153.81 81.2896 167.206C84.3213 180.602 74.3894 185.543 59.4032 188.844C44.417 192.146 30.0514 192.559 27.0197 179.162Z" fill="#00FFAB"/>
<path d="M38.1133 204.362C39.5081 201.46 33.0447 195.554 23.6768 191.17C14.3089 186.787 5.58407 185.585 4.18927 188.487C2.79447 191.388 9.25792 197.294 18.6258 201.678C27.9936 206.062 36.7185 207.263 38.1133 204.362Z" fill="#2F2E41"/>
<path d="M44.9982 226.978C44.9982 230.604 54.4601 237.763 64.9595 237.763C75.4588 237.763 85.3031 227.556 85.3031 223.93C85.3031 220.304 75.4588 224.633 64.9595 224.633C54.4602 224.633 44.9982 223.352 44.9982 226.978Z" fill="white"/>
<path d="M96.4881 69C95.8284 69.0008 95.196 69.2806 94.7295 69.7782C94.2631 70.2757 94.0007 70.9503 94 71.6539V181.346C94.0007 182.05 94.2631 182.724 94.7295 183.222C95.196 183.719 95.8284 183.999 96.4881 184H334.512C335.172 183.999 335.804 183.719 336.27 183.222C336.737 182.724 336.999 182.05 337 181.346V71.6539C336.999 70.9503 336.737 70.2757 336.27 69.7782C335.804 69.2806 335.172 69.0008 334.512 69H96.4881Z" fill="#00FFAB"/>
<path d="M167.915 153.124C181.936 153.124 193.302 141.909 193.302 128.074C193.302 114.24 181.936 103.025 167.915 103.025C153.893 103.025 142.527 114.24 142.527 128.074C142.527 141.909 153.893 153.124 167.915 153.124Z" fill="white"/>
<path d="M225.214 124.742C224.435 124.754 223.693 125.068 223.146 125.616C222.6 126.164 222.294 126.902 222.294 127.67C222.294 128.439 222.6 129.177 223.146 129.724C223.693 130.272 224.435 130.586 225.214 130.599H305.372C305.762 130.606 306.15 130.536 306.513 130.395C306.876 130.254 307.207 130.044 307.487 129.776C307.768 129.509 307.992 129.189 308.147 128.836C308.302 128.483 308.385 128.103 308.392 127.718C308.398 127.334 308.328 126.951 308.184 126.594C308.041 126.236 307.827 125.909 307.556 125.633C307.285 125.356 306.961 125.135 306.603 124.982C306.245 124.829 305.86 124.748 305.47 124.742C305.437 124.741 305.405 124.741 305.372 124.742H225.214Z" fill="white"/>
<path d="M225.214 107.773C224.435 107.785 223.693 108.1 223.146 108.647C222.6 109.195 222.294 109.933 222.294 110.702C222.294 111.47 222.6 112.208 223.146 112.756C223.693 113.304 224.435 113.618 225.214 113.63H265.243C265.633 113.637 266.021 113.568 266.384 113.426C266.747 113.285 267.078 113.075 267.358 112.807C267.639 112.54 267.863 112.22 268.018 111.867C268.173 111.514 268.256 111.134 268.263 110.75C268.269 110.365 268.199 109.983 268.055 109.625C267.912 109.267 267.698 108.94 267.427 108.664C267.156 108.387 266.832 108.166 266.474 108.013C266.116 107.861 265.731 107.779 265.341 107.773C265.308 107.772 265.276 107.772 265.243 107.773H225.214Z" fill="white"/>
<path d="M225.214 142.518C224.435 142.531 223.693 142.845 223.146 143.393C222.6 143.941 222.294 144.679 222.294 145.447C222.294 146.216 222.6 146.953 223.146 147.501C223.693 148.049 224.435 148.363 225.214 148.376H305.372C305.762 148.383 306.15 148.313 306.513 148.172C306.876 148.031 307.207 147.821 307.487 147.553C307.768 147.286 307.992 146.966 308.147 146.613C308.302 146.26 308.385 145.88 308.392 145.495C308.398 145.111 308.328 144.728 308.184 144.37C308.041 144.012 307.827 143.686 307.556 143.41C307.285 143.133 306.961 142.912 306.603 142.759C306.245 142.606 305.86 142.524 305.47 142.518C305.437 142.518 305.405 142.518 305.372 142.518H225.214Z" fill="white"/>
<path d="M614.515 339.811C617.555 338.664 617.019 329.989 613.317 320.433C609.615 310.877 604.15 304.061 601.11 305.207C598.069 306.354 598.605 315.03 602.307 324.585C606.009 334.141 611.474 340.958 614.515 339.811Z" fill="#2F2E41"/>
<path d="M640.684 394.792C661.152 391.515 675.053 372.487 671.731 352.291C668.41 332.096 649.124 318.381 628.656 321.658C608.187 324.935 594.287 343.964 597.608 364.159C600.93 384.355 620.216 398.069 640.684 394.792Z" fill="#2F2E41"/>
<path d="M651.779 387.299H640.373L642.605 411.447L651.799 408.982L651.779 387.299Z" fill="#2F2E41"/>
<path d="M626.913 387.362H615.506L617.738 411.509L626.517 408.982L626.913 387.362Z" fill="#2F2E41"/>
<path d="M617.414 412.644C622.649 412.266 626.777 410.39 626.634 408.452C626.49 406.515 622.13 405.251 616.894 405.629C611.658 406.006 607.53 407.883 607.674 409.82C607.817 411.757 612.178 413.022 617.414 412.644Z" fill="#2F2E41"/>
<path d="M633.719 361.508C640.806 361.508 646.551 355.839 646.551 348.847C646.551 341.854 640.806 336.185 633.719 336.185C626.632 336.185 620.887 341.854 620.887 348.847C620.887 355.839 626.632 361.508 633.719 361.508Z" fill="white"/>
<path d="M633.719 353.067C636.082 353.067 637.997 351.177 637.997 348.847C637.997 346.516 636.082 344.626 633.719 344.626C631.357 344.626 629.442 346.516 629.442 348.847C629.442 351.177 631.357 353.067 633.719 353.067Z" fill="#3F3D56"/>
<path d="M679.084 335.889C685.244 327.66 688.116 319.443 685.497 317.535C682.879 315.627 675.763 320.751 669.603 328.98C663.443 337.208 660.572 345.425 663.19 347.333C665.808 349.241 672.925 344.118 679.084 335.889Z" fill="#2F2E41"/>
<path d="M616.351 377.327C616.351 374.338 624.149 368.438 632.802 368.438C641.456 368.438 649.569 376.85 649.569 379.839C649.569 382.827 641.456 379.259 632.802 379.259C624.149 379.259 616.351 380.315 616.351 377.327Z" fill="white"/>
<path d="M742.787 332.537L537.264 304.425C535.661 304.204 534.213 303.365 533.237 302.092C532.261 300.819 531.837 299.216 532.057 297.634L555.161 133.194C555.385 131.613 556.236 130.184 557.526 129.221C558.816 128.258 560.441 127.839 562.044 128.056L767.567 156.168C769.17 156.389 770.618 157.228 771.594 158.501C772.57 159.774 772.994 161.377 772.774 162.959L749.67 327.399C749.446 328.98 748.595 330.409 747.305 331.372C746.015 332.335 744.39 332.754 742.787 332.537Z" fill="#00FFAB"/>
<path d="M666.327 276.292L561.402 261.94C561.27 261.924 561.141 261.895 561.014 261.856L622.555 183.833C622.932 183.346 623.433 182.966 624.008 182.733C624.582 182.5 625.209 182.422 625.824 182.506C626.439 182.59 627.02 182.834 627.509 183.212C627.997 183.591 628.375 184.09 628.603 184.66L653.911 246.13L655.124 249.071L666.327 276.292Z" fill="white"/>
<path opacity="0.2" d="M666.327 276.291L630.503 271.392L651.63 248.593L653.151 246.951L653.911 246.13L655.124 249.072L666.327 276.291Z" fill="black"/>
<path d="M724.749 284.282L633.997 271.869L655.124 249.071L656.645 247.429L684.176 217.718C684.651 217.272 685.217 216.929 685.835 216.713C686.454 216.496 687.112 216.41 687.766 216.461C688.421 216.511 689.057 216.697 689.634 217.006C690.211 217.315 690.716 217.74 691.116 218.254C691.216 218.398 691.307 218.549 691.389 218.705L724.749 284.282Z" fill="white"/>
<path d="M667.603 210.32C676.27 210.32 683.296 203.388 683.296 194.837C683.296 186.285 676.27 179.353 667.603 179.353C658.936 179.353 651.911 186.285 651.911 194.837C651.911 203.388 658.936 210.32 667.603 210.32Z" fill="white"/>
<path d="M581.716 138.37L562.718 135.772L560.084 154.516L579.082 157.115L581.716 138.37Z" fill="#3F3D56"/>
<path d="M671.091 323.774C674.123 310.378 664.431 296.842 649.445 293.54C634.459 290.238 619.853 298.421 616.821 311.818C613.789 325.214 623.721 330.154 638.707 333.456C653.694 336.758 668.059 337.17 671.091 323.774Z" fill="#F2F2F2"/>
<path d="M642.428 412.584C647.664 412.207 651.792 410.33 651.648 408.393C651.504 406.456 647.144 405.191 641.908 405.569C636.672 405.947 632.544 407.823 632.688 409.761C632.831 411.698 637.192 412.962 642.428 412.584Z" fill="#2F2E41"/>
</g>
<defs>
<filter id="filter0_d_18_215" x="0" y="0" width="780" height="489" filterUnits="userSpaceOnUse" color-interpolation-filters="sRGB">
<feFlood flood-opacity="0" result="BackgroundImageFix"/>
<feColorMatrix in="SourceAlpha" type="matrix" values="0 0 0 0 0 0 0 0 0 0 0 0 0 0 0 0 0 0 127 0" result="hardAlpha"/>
<feOffset dx="3" dy="5"/>
<feGaussianBlur stdDeviation="3.5"/>
<feComposite in2="hardAlpha" operator="out"/>
<feColorMatrix type="matrix" values="0 0 0 0 0 0 0 0 0 0 0 0 0 0 0 0 0 0 0.25 0"/>
<feBlend mode="normal" in2="BackgroundImageFix" result="effect1_dropShadow_18_215"/>
<feBlend mode="normal" in="SourceGraphic" in2="effect1_dropShadow_18_215" result="shape"/>
</filter>
<clipPath id="clip0_18_215">
<rect width="766" height="475" fill="white" transform="translate(4 2)"/>
</clipPath>
</defs>
</svg>
